<svg width="32" height="32" viewBox="0 0 80 72" fill="none" xmlns="http://www.w3.org/2000/svg">
  <!-- Background -->
  <rect width="80" height="72" rx="8" fill="#0f1629"/>
  <!-- Roof -->
  <polygon points="4,34 40,6 76,34" fill="#4338ca"/>
  <line x1="4" y1="34" x2="76" y2="34" stroke="#6366f1" stroke-width="1.5"/>
  <!-- Store body -->
  <rect x="8" y="33" width="64" height="34" rx="2" fill="#312e81"/>
  <!-- Sign banner -->
  <rect x="10" y="26" width="60" height="10" rx="2" fill="#6366f1"/>
  <!-- Window/counter -->
  <rect x="14" y="39" width="52" height="22" rx="2" fill="#1e1b4b"/>
  <!-- Vertical bars -->
  <line x1="22" y1="39" x2="22" y2="61" stroke="#818cf8" stroke-width="1.5"/>
  <line x1="30" y1="39" x2="30" y2="61" stroke="#818cf8" stroke-width="1.5"/>
  <line x1="38" y1="39" x2="38" y2="61" stroke="#818cf8" stroke-width="1.5"/>
  <line x1="46" y1="39" x2="46" y2="61" stroke="#818cf8" stroke-width="1.5"/>
  <line x1="54" y1="39" x2="54" y2="61" stroke="#818cf8" stroke-width="1.5"/>
  <line x1="62" y1="39" x2="62" y2="61" stroke="#818cf8" stroke-width="1.5"/>
  <!-- Counter ledge -->
  <line x1="14" y1="52" x2="66" y2="52" stroke="#6366f1" stroke-width="1.5"/>
  <!-- Shelf items -->
  <rect x="18" y="41" width="5" height="8" rx="1" fill="#a5b4fc" opacity="0.7"/>
  <rect x="32" y="42" width="4" height="7" rx="1" fill="#c7d2fe" opacity="0.7"/>
  <rect x="44" y="41" width="5" height="8" rx="1" fill="#a5b4fc" opacity="0.7"/>
  <rect x="57" y="42" width="4" height="7" rx="1" fill="#c7d2fe" opacity="0.7"/>
  <!-- Bottom ledge -->
  <rect x="12" y="61" width="56" height="5" rx="2" fill="#4338ca"/>
</svg>
